<svg width="16" height="16" viewBox="0 0 16 16" fill="none" xmlns="http://www.w3.org/2000/svg">
<g id="circle-check-filled">
<path id="Vector" d="M11.3335 2.22667C12.339 2.80724 13.1755 3.64035 13.76 4.64353C14.3446 5.64672 14.6571 6.78518 14.6664 7.94623C14.6758 9.10727 14.3818 10.2506 13.8135 11.2631C13.2452 12.2756 12.4223 13.1221 11.4263 13.7189C10.4303 14.3156 9.29574 14.6419 8.1349 14.6654C6.97405 14.6889 5.8272 14.4088 4.80787 13.8528C3.78854 13.2969 2.93208 12.4843 2.32327 11.4957C1.71447 10.507 1.37444 9.37647 1.33683 8.216L1.3335 8L1.33683 7.784C1.37416 6.63266 1.70919 5.51064 2.30926 4.52733C2.90932 3.54402 3.75393 2.73297 4.76076 2.17325C5.76758 1.61354 6.90226 1.32426 8.05417 1.33362C9.20607 1.34299 10.3359 1.65066 11.3335 2.22667ZM10.4715 6.19533C10.3567 6.08055 10.204 6.01159 10.042 6.00141C9.87993 5.99122 9.71977 6.0405 9.5915 6.14L9.52883 6.19533L7.3335 8.39L6.4715 7.52867L6.40883 7.47333C6.28055 7.3739 6.12041 7.32468 5.95843 7.3349C5.79645 7.34512 5.64377 7.41408 5.529 7.52884C5.41424 7.6436 5.34528 7.79629 5.33507 7.95827C5.32485 8.12025 5.37407 8.28039 5.4735 8.40867L5.52883 8.47133L6.86216 9.80467L6.92483 9.86C7.04175 9.95071 7.18552 9.99994 7.3335 9.99994C7.48147 9.99994 7.62525 9.95071 7.74216 9.86L7.80483 9.80467L10.4715 7.138L10.5268 7.07533C10.6263 6.94706 10.6756 6.7869 10.6654 6.62488C10.6552 6.46286 10.5863 6.31013 10.4715 6.19533Z" fill="#F46A6A"/>
</g>
</svg>
