<svg width="25" height="24" viewBox="0 0 25 24" fill="none" xmlns="http://www.w3.org/2000/svg">
<g id="heroicons-solid:exclamation">
<path id="Vector" fill-rule="evenodd" clip-rule="evenodd" d="M10.4082 3.7188C11.3262 2.0868 13.6746 2.0868 14.5914 3.7188L21.2874 15.6228C22.1874 17.2236 21.0318 19.1988 19.197 19.1988H5.80382C3.96782 19.1988 2.81222 17.2236 3.71222 15.6228L10.4082 3.7188ZM13.6998 15.6C13.6998 15.9183 13.5734 16.2235 13.3483 16.4485C13.1233 16.6736 12.8181 16.8 12.4998 16.8C12.1816 16.8 11.8763 16.6736 11.6513 16.4485C11.4262 16.2235 11.2998 15.9183 11.2998 15.6C11.2998 15.2817 11.4262 14.9765 11.6513 14.7515C11.8763 14.5264 12.1816 14.4 12.4998 14.4C12.8181 14.4 13.1233 14.5264 13.3483 14.7515C13.5734 14.9765 13.6998 15.2817 13.6998 15.6ZM12.4998 6C12.1816 6 11.8763 6.12643 11.6513 6.35147C11.4262 6.57652 11.2998 6.88174 11.2998 7.2V10.8C11.2998 11.1183 11.4262 11.4235 11.6513 11.6485C11.8763 11.8736 12.1816 12 12.4998 12C12.8181 12 13.1233 11.8736 13.3483 11.6485C13.5734 11.4235 13.6998 11.1183 13.6998 10.8V7.2C13.6998 6.88174 13.5734 6.57652 13.3483 6.35147C13.1233 6.12643 12.8181 6 12.4998 6Z" fill="#F46A6A"/>
</g>
</svg>
