<svg width="20" height="20" viewBox="0 0 20 20" fill="none" xmlns="http://www.w3.org/2000/svg">
<g id="solar:danger-triangle-bold">
<path id="Vector" fill-rule="evenodd" clip-rule="evenodd" d="M4.4267 8.96833C6.85837 4.65583 8.0742 2.5 10 2.5C11.925 2.5 13.1417 4.65583 15.5734 8.96833L15.8767 9.505C17.8975 13.0883 18.9084 14.88 17.995 16.19C17.0817 17.5 14.8217 17.5 10.3034 17.5H9.6967C5.17837 17.5 2.91837 17.5 2.00504 16.19C1.0917 14.88 2.10254 13.0883 4.12337 9.505L4.4267 8.96833ZM10 6.04167C10.1658 6.04167 10.3248 6.10751 10.442 6.22472C10.5592 6.34193 10.625 6.50091 10.625 6.66667V10.8333C10.625 10.9991 10.5592 11.1581 10.442 11.2753C10.3248 11.3925 10.1658 11.4583 10 11.4583C9.83428 11.4583 9.67531 11.3925 9.5581 11.2753C9.44089 11.1581 9.37504 10.9991 9.37504 10.8333V6.66667C9.37504 6.50091 9.44089 6.34193 9.5581 6.22472C9.67531 6.10751 9.83428 6.04167 10 6.04167ZM10 14.1667C10.2211 14.1667 10.433 14.0789 10.5893 13.9226C10.7456 13.7663 10.8334 13.5543 10.8334 13.3333C10.8334 13.1123 10.7456 12.9004 10.5893 12.7441C10.433 12.5878 10.2211 12.5 10 12.5C9.77902 12.5 9.56706 12.5878 9.41078 12.7441C9.2545 12.9004 9.1667 13.1123 9.1667 13.3333C9.1667 13.5543 9.2545 13.7663 9.41078 13.9226C9.56706 14.0789 9.77902 14.1667 10 14.1667Z" fill="#EAA52F"/>
</g>
</svg>
